<svg width="688" height="396" fill="none" xmlns="http://www.w3.org/2000/svg"><path d="M336.037 193.736l2.522-2.697c6.57 7.535 13.668 11.317 23.288 11.317 17.98 0 29.097-15.627 29.097-43.069 0-25.302-10.386-40.928-29.097-40.928-8.095 0-15.955 3.781-20.765 9.411l-2.523-2.961c4.546-5.395 13.404-10.497 23.288-10.497 20.766 0 33.172 16.683 33.172 45.766 0 29.084-12.905 46.294-32.908 46.294-11.644 0-19.504-4.837-26.074-12.636zm15.163-38.202h43.029v3.782H351.2v-3.782zm61.007-39.58h5.808l15.691 43.068 5.575 15.891h.499l5.309-15.891 15.953-43.068h5.838v88.834h-4.05v-66.611c0-5.512.266-11.698.385-17.24h-.385l-4.544 14.396-17.099 45.766h-3.402l-16.955-45.766-4.925-14.396h-.266c.118 5.512.499 11.698.499 17.24v66.611h-3.931v-88.834zm74.059 0h4.049v57.61c0 8.356-.266 16.419-.499 25.038h.499l9.122-17.503 34.933-65.145h4.544v88.834h-4.046v-58.402c0-8.356.263-15.891.496-24.217h-.496l-9.122 17.503-34.932 65.146h-4.548v-88.864zm62.417 89.362l1.26-4.309c1.259.527 2.287.791 3.55.791 4.544 0 8.095-3.225 12.141-25.829 3.55-20.054 6.569-38.496 10.119-60.044h36.193v88.834H607.9v-85.052h-28.862c-3.285 19.115-6.07 37.82-9.355 56.789-4.312 25.038-8.594 29.876-15.957 29.876-1.26 0-3.048-.264-5.073-1.085m86.961-89.333h4.049v39.579h18.976c17.982 0 29.361 7.007 29.361 23.426 0 16.418-10.12 25.859-28.862 25.859h-23.55v-88.835l.026-.029zm22.027 85.052c17.454 0 26.339-6.743 26.339-21.813 0-13.985-9.122-19.907-26.838-19.907h-17.479v41.72h17.978zm-451.86-54.561h-29.388v-28.263h29.388v28.263zm-26.426-2.932h23.493v-22.399h-23.493v22.399zm68.163 2.932H218.13v-28.263h29.388v28.263zm-26.456-2.932h23.494v-22.399h-23.494v22.399z" fill="#000"/><path d="M160.143 0l-.381.498a.751.751 0 00-.616 0L68.545 44.534V25.155a.745.745 0 00-.733-.733.745.745 0 00-.734.733v20.083l-2.2 1.056V16.037a.726.726 0 00-.733-.733.726.726 0 00-.733.733v30.99L21.587 67.374a.715.715 0 00-.352.967c.117.264.381.41.675.41.117 0 .205 0 .322-.058l41.21-20.024v2.902L18.39 73.472a.764.764 0 00-.352.997c.117.264.381.41.645.41.118 0 .235 0 .323-.059l44.406-21.578v147.061H7.802a.726.726 0 00-.733.733c0 .411.322.733.733.733h55.64v1.378H.732a.726.726 0 00-.733.733c0 .411.323.733.733.733H63.44v16.242c0 .411.352.733.734.733a.744.744 0 00.733-.733v-16.242h2.2v16.242c0 .411.322.733.733.733.41 0 .733-.322.733-.733v-16.242h198.683V87.926l41.855 32.866 1.818-2.316L160.143 0zM64.879 47.965l2.2-1.056v2.903l-2.2 1.085v-2.932zm2.228 155.153h-2.2v-1.378h2.2v1.378zm-2.2-150.609l2.171-1.055v148.849h-2.17V52.509zm3.667-6.333l89.927-43.743 2.288 1.789L68.545 49.05v-2.903l.03.03zm88.05 156.942h-88.05v-1.378h88.05v1.378zM264.529 86.167l-.175 115.485H159.586v-51.483h-2.933v50.134h-88.05V50.721L162.08 5.248c34.14 26.973 68.31 53.946 102.45 80.919zM.046 323.491c0-45.434 25.045-72.834 59.074-72.834 15.824 0 28.39 8.201 36.374 17.288l-11.191 13.467c-6.563-7.316-14.68-11.929-25.183-11.929-23.07 0-38.57 20.364-38.57 53.449 0 33.086 15.5 54.242 38.847 54.242 11.19 0 19.949-5.406 27.563-14.586l11.191 13.048C87.925 388.637 74.666 396 57.421 396 25.363 396 0 369.672 0 323.585m155.273-51.432h-42.581v-17.862h105.422v17.862h-42.58v120.213h-20.261V272.153zm84.652-17.817h41.486c28.931 0 49.395 10.424 49.395 41.602 0 31.179-20.792 43.76-49.395 43.76h-21.302v52.668h-20.137V254.291l-.047.045zm39.535 68.372c21.162 0 31.345-8.54 31.345-26.77 0-18.229-10.511-24.566-31.345-24.566h-19.398v51.336h19.398zm65.887-.009c0-45.697 20.936-72.042 50.896-72.042 29.961 0 50.891 26.345 50.891 72.042S426.204 396 396.243 396c-29.96 0-50.896-26.858-50.896-73.301zm81.09 0c0-33.667-11.993-53.204-30.194-53.204-18.2 0-30.193 19.537-30.193 53.204 0 33.666 11.993 54.51 30.193 54.51 18.201 0 30.194-20.051 30.194-54.51zm38.873-68.408h18.894v65.708c0 14.97-1.821 31.5-2.615 45.413h.47l12.271-29.066 40.263-82.055h21.598v138.075h-18.894v-66.214c0-14.831 1.821-30.489 2.615-44.908h-.47l-12.271 29.02-40.263 82.102H465.31V254.291zm151.682 17.862h-42.625v-17.862h105.422v17.862h-42.578v120.213h-20.219V272.153z" fill="#000"/></svg>