<svg width="311" height="62" fill="none" xmlns="http://www.w3.org/2000/svg"><g clip-path="url(#clip0_75_328)" fill="#fff"><path d="M92.439 54.335l.694-.743c1.807 2.074 3.76 3.115 6.406 3.115 4.946 0 8.004-4.3 8.004-11.853 0-6.963-2.857-11.264-8.004-11.264-2.227 0-4.39 1.04-5.713 2.59l-.693-.815c1.25-1.485 3.687-2.889 6.406-2.889 5.712 0 9.125 4.592 9.125 12.596 0 8.004-3.55 12.74-9.052 12.74-3.204 0-5.366-1.331-7.173-3.477zM96.61 43.82h11.836v1.041H96.61v-1.04zm16.782-10.892h1.598l4.316 11.853 1.534 4.373h.137l1.46-4.373 4.389-11.853h1.606v24.448h-1.114V39.044c0-1.517.073-3.22.106-4.744h-.106l-1.25 3.962-4.704 12.595h-.936l-4.664-12.596-1.355-3.961h-.073c.033 1.517.137 3.22.137 4.744v18.332h-1.081V32.928zm20.373 0h1.113v15.855c0 2.3-.073 4.519-.137 6.89h.137l2.51-4.816 9.609-17.929h1.25v24.448h-1.113V41.303c0-2.3.073-4.373.137-6.664h-.137l-2.509 4.817-9.609 17.928h-1.251V32.928zm17.17 24.594l.346-1.186c.347.145.629.217.977.217 1.25 0 2.227-.887 3.34-7.108.976-5.52 1.807-10.594 2.783-16.525h9.956v24.448h-1.112V33.961h-7.94c-.904 5.26-1.67 10.409-2.573 15.63-1.187 6.89-2.364 8.221-4.39 8.221-.347 0-.839-.072-1.395-.298m23.921-24.586h1.114v10.893h5.22c4.947 0 8.077 1.928 8.077 6.447 0 4.518-2.784 7.117-7.94 7.117h-6.478V32.936l.007-.008zm6.06 23.408c4.801 0 7.245-1.856 7.245-6.004 0-3.849-2.509-5.478-7.383-5.478h-4.808v11.482h4.946zm12.094-11.054c0-7.867 4.406-12.612 10.392-12.612 2.784 0 4.994 1.42 6.399 2.993l-1.969 2.332c-1.154-1.266-2.582-2.065-4.43-2.065-4.058 0-6.785 3.526-6.785 9.255 0 5.728 2.727 9.392 6.834 9.392 1.969 0 3.509-.936 4.849-2.526l1.968 2.26c-1.798 2.25-4.131 3.526-7.165 3.526-5.639 0-10.101-4.56-10.101-12.54m26.626-9.044h-7.359v-3.139h18.218v3.139h-7.358v21.124h-3.501V36.253zm14.7-3.139h7.197c5.019 0 8.569 1.831 8.569 7.31 0 5.479-3.607 7.69-8.569 7.69h-3.695v9.255h-3.494V33.105l-.008.008zm6.859 12.014c3.671 0 5.437-1.5 5.437-4.704 0-3.203-1.823-4.317-5.437-4.317h-3.366v9.021h3.366zm11.504.008c0-7.907 3.648-12.466 8.868-12.466 5.22 0 8.866 4.559 8.866 12.466 0 7.908-3.646 12.684-8.866 12.684s-8.868-4.647-8.868-12.684zm14.128 0c0-5.826-2.089-9.206-5.26-9.206s-5.261 3.38-5.261 9.206 2.09 9.433 5.261 9.433c3.171 0 5.26-3.47 5.26-9.433zm6.972-12.022h3.267v11.547c0 2.63-.315 5.535-.452 7.98h.081l2.122-5.108 6.963-14.419h3.735v24.263h-3.267V45.742c0-2.606.315-5.358.452-7.892h-.081l-2.122 5.1-6.963 14.427h-3.735V33.114zm26.205 3.139h-7.366v-3.139h18.218v3.139h-7.358v21.124h-3.494V36.253zM56.607 41.32h-8.084v-7.78h8.084v7.779zm-7.27-.807h6.464v-6.165h-6.463v6.165zm18.752.807h-8.085v-7.78h8.085v7.779zm-7.278-.807h6.463v-6.165H60.81v6.165z"/><path d="M44.053 1.016l-.105.138a.207.207 0 00-.17 0L18.857 13.273V7.939a.205.205 0 00-.202-.201.205.205 0 00-.202.201v5.527l-.605.291V5.43a.2.2 0 00-.202-.202.2.2 0 00-.201.202v8.529l-11.506 5.6a.197.197 0 00-.097.266.197.197 0 00.186.113c.032 0 .057 0 .089-.016l11.336-5.511v.798L5.059 21.237a.21.21 0 00-.097.274.194.194 0 00.178.113c.032 0 .064 0 .088-.016l12.216-5.939v40.473H2.146a.2.2 0 00-.202.202.2.2 0 00.202.201h15.306v.38H.202a.2.2 0 00-.202.202.2.2 0 00.202.201h17.25v4.47c0 .113.097.202.201.202a.205.205 0 00.202-.202v-4.47h.605v4.47a.2.2 0 00.202.202.2.2 0 00.202-.202v-4.47h54.655V25.215l11.513 9.045.5-.638L44.053 1.016zm-26.206 13.2l.605-.29v.8l-.605.298v-.807zm.613 42.7h-.605v-.378h.605v.379zm-.605-.782V15.468l.597-.29v40.964h-.597v-.008zm1.009-42.41L43.6 1.687l.63.492-25.375 12.337v-.798l.008.008zm24.22 43.193h-24.22v-.38h24.22v.38zM72.769 24.73l-.048 31.783H43.9V42.345h-.807v13.797H18.872V14.975L44.586 2.461c9.391 7.423 18.79 14.846 28.182 22.27zM307.241 9.294c-.448 0-.866-.077-1.257-.232a3.248 3.248 0 01-1-.659 3.117 3.117 0 01-.671-1.012 3.34 3.34 0 01-.243-1.293c0-.471.081-.902.243-1.293a2.98 2.98 0 01.671-1 2.98 2.98 0 011-.658 3.236 3.236 0 011.257-.244c.447 0 .861.081 1.244.244.39.154.727.374 1.012.658.284.277.508.61.671 1 .162.39.244.822.244 1.293 0 .472-.082.903-.244 1.293-.163.39-.387.728-.671 1.012a3.21 3.21 0 01-1.012.66 3.292 3.292 0 01-1.244.23zm0-.878c.317 0 .609-.057.878-.171.268-.114.5-.272.695-.476.195-.203.345-.447.451-.732.114-.284.171-.597.171-.939 0-.341-.057-.654-.171-.939a2.101 2.101 0 00-.451-.732 2.077 2.077 0 00-.695-.475 2.227 2.227 0 00-.878-.171c-.318 0-.61.057-.879.17-.268.115-.5.273-.695.476a2.253 2.253 0 00-.463.732 2.672 2.672 0 00-.159.94c0 .34.053.654.159.938.114.285.268.529.463.732.195.204.427.362.695.476.269.114.561.17.879.17zm-9.704-5.366h3.317c.317 0 .606.04.866.121.26.073.48.183.658.33a1.42 1.42 0 01.574 1.159c0 .308-.082.568-.244.78a1.79 1.79 0 01-.659.512v.049c.342.138.606.337.793.597.187.26.28.557.28.89a1.562 1.562 0 01-.524 1.17 1.983 1.983 0 01-.634.355c-.252.09-.541.135-.866.135h-3.561V3.049zm3.317 2.512c.333 0 .602-.07.805-.208a.683.683 0 00.317-.61.683.683 0 00-.317-.61c-.203-.138-.472-.207-.805-.207h-2.342v1.635h2.342zM301 8.269c.358 0 .639-.085.842-.256a.822.822 0 00.305-.658.822.822 0 00-.305-.659c-.203-.17-.484-.256-.842-.256h-2.488v1.83H301zM290.37 3.05h5.854v.877h-2.439v5.22h-.975v-5.22h-2.44V3.05zm-3.634 6.244c-.447 0-.862-.077-1.244-.232a3.236 3.236 0 01-1-.659 3.024 3.024 0 01-.646-1.012 3.473 3.473 0 01-.232-1.293c0-.471.077-.902.232-1.293a2.892 2.892 0 011.646-1.658 3.144 3.144 0 011.244-.244c.374 0 .724.057 1.049.17a2.839 2.839 0 011.549 1.208c.187.285.321.606.402.964h-1c-.162-.464-.415-.822-.756-1.074-.342-.26-.756-.39-1.244-.39a2.27 2.27 0 00-.89.17 1.97 1.97 0 00-.671.476 2.2 2.2 0 00-.439.732 2.869 2.869 0 00-.147.94c0 .34.049.654.147.938a2.2 2.2 0 00.439.732c.187.204.41.362.671.476.268.114.565.17.89.17.488 0 .902-.125 1.244-.377.341-.26.594-.622.756-1.086h1a3.046 3.046 0 01-.402.976 3.041 3.041 0 01-.671.732c-.26.203-.553.361-.878.475a3.374 3.374 0 01-1.049.159zm-9.513-6.244h.976v2.17h2.292c.277 0 .545.04.805.122.261.073.492.191.696.354.211.154.378.358.5.61.13.244.195.54.195.89s-.061.647-.183.89a1.804 1.804 0 01-.488.61 2.055 2.055 0 01-.695.342 2.96 2.96 0 01-.805.11h-3.293V3.049zm3.293 5.22c.382 0 .675-.098.878-.293.211-.204.317-.464.317-.78a1.04 1.04 0 00-.317-.782c-.211-.21-.512-.317-.903-.317h-2.292V8.27h2.317zm-5.194.878h-.975v-5.22h-2.976l-.22 3.756c-.024.463-.154.83-.39 1.098-.228.26-.593.39-1.097.39h-.61v-.976h.488c.243 0 .41-.049.5-.146.089-.098.142-.268.158-.512l.268-4.489h4.854v6.099zm-10.019.146c-.447 0-.862-.077-1.244-.232a3.248 3.248 0 01-1-.659 3.2 3.2 0 01-.658-1.012 3.323 3.323 0 01-.244-1.293c0-.471.081-.902.244-1.293a2.97 2.97 0 01.67-1 2.975 2.975 0 011.001-.658 3.108 3.108 0 011.231-.244c.439 0 .846.077 1.22.232.374.146.695.357.963.634.269.268.48.593.635.975.154.383.231.81.231 1.281v.17a.696.696 0 01-.012.135.696.696 0 01-.012.134h-5.171c.04.293.118.561.232.805.122.244.276.456.463.634.195.171.415.305.659.403.244.09.508.134.792.134.415 0 .785-.093 1.11-.28.325-.196.573-.46.744-.793h1.049c-.114.3-.268.569-.463.805a3.21 3.21 0 01-.671.61 3.206 3.206 0 01-.83.378 3.19 3.19 0 01-.939.134zm2.049-3.684c-.089-.56-.317-1.008-.683-1.341-.357-.342-.813-.512-1.366-.512a2.082 2.082 0 00-1.402.512 2.059 2.059 0 00-.476.573 2.52 2.52 0 00-.256.768h4.183zm-11.755-2.56h5.854v.877h-2.439v5.22h-.976v-5.22h-2.439V3.05zm-1.318 6.098h-.976V4.562h-.048l-3.415 4.586h-.976V3.049h.976v4.586h.048l3.415-4.586h.976v6.099zm-10.004.146a3.38 3.38 0 01-1.256-.232 3.248 3.248 0 01-1-.659 3.1 3.1 0 01-.671-1.012 3.341 3.341 0 01-.244-1.293c0-.471.082-.902.244-1.293.163-.39.386-.723.671-1a2.98 2.98 0 011-.658c.39-.163.809-.244 1.256-.244.447 0 .862.081 1.244.244.391.154.728.374 1.012.658.285.277.509.61.671 1 .163.39.244.822.244 1.293 0 .472-.081.903-.244 1.293a3.08 3.08 0 01-.671 1.012 3.188 3.188 0 01-1.012.66 3.288 3.288 0 01-1.244.23zm0-.878c.317 0 .61-.057.878-.171.269-.114.5-.272.696-.476.195-.203.345-.447.451-.732.114-.284.171-.597.171-.939 0-.341-.057-.654-.171-.939a2.101 2.101 0 00-.451-.732 2.08 2.08 0 00-.696-.475 2.224 2.224 0 00-.878-.171c-.317 0-.61.057-.878.17-.268.115-.5.273-.695.476a2.27 2.27 0 00-.464.732 2.694 2.694 0 00-.158.94c0 .34.053.654.158.938.114.285.269.529.464.732.195.204.427.362.695.476.268.114.561.17.878.17zm-7.185-5.513c.439 0 .841.081 1.207.244.374.154.695.374.964.658.268.277.475.61.622 1 .154.39.231.822.231 1.293 0 .472-.077.903-.231 1.293-.147.39-.354.728-.622 1.012a3.01 3.01 0 01-.964.66 3.072 3.072 0 01-1.207.23c-.512 0-.956-.097-1.33-.292a2.876 2.876 0 01-.914-.756h-.049v3.342h-.976V3.049h.976v.903h.049c.244-.31.549-.561.914-.757.374-.195.818-.292 1.33-.292zm-.122 5.513a2.138 2.138 0 001.561-.647c.195-.203.346-.447.451-.732.106-.284.159-.597.159-.939 0-.341-.053-.654-.159-.939a2.087 2.087 0 00-.451-.732 2.138 2.138 0 00-1.561-.646c-.317 0-.61.057-.878.17-.269.115-.5.273-.695.476-.196.204-.35.448-.464.732a2.672 2.672 0 00-.158.94c0 .34.052.654.158.938.114.285.268.529.464.732.195.204.426.362.695.476.268.114.561.17.878.17zM226.655 3.05h5.854v.877h-2.439v5.22h-.976v-5.22h-2.439V3.05zm-3.636 6.244c-.447 0-.861-.077-1.244-.232a3.248 3.248 0 01-1-.659 3.04 3.04 0 01-.646-1.012 3.473 3.473 0 01-.232-1.293c0-.471.077-.902.232-1.293.154-.39.37-.723.646-1a2.98 2.98 0 011-.658 3.147 3.147 0 011.244-.244c.374 0 .724.057 1.049.17.326.106.618.26.878.464.261.203.484.451.671.744.187.285.321.606.403.964h-1c-.163-.464-.415-.822-.757-1.074-.341-.26-.756-.39-1.244-.39a2.27 2.27 0 00-.89.17 1.98 1.98 0 00-.671.476 2.2 2.2 0 00-.439.732 2.895 2.895 0 00-.146.94c0 .34.049.654.146.938a2.2 2.2 0 00.439.732c.187.204.411.362.671.476.268.114.565.17.89.17.488 0 .903-.125 1.244-.377.342-.26.594-.622.757-1.086h1a3.07 3.07 0 01-.403.976 3.021 3.021 0 01-1.549 1.207 3.374 3.374 0 01-1.049.159zm-7.95-.146h-.976V4.562h-.049l-3.415 4.586h-.975V3.049h.975v4.586h.049l3.415-4.586h.976v6.099zm-13.286.146c-.447 0-.862-.077-1.244-.232a3.248 3.248 0 01-1-.659 3.22 3.22 0 01-.659-1.012 3.341 3.341 0 01-.244-1.293c0-.471.082-.902.244-1.293a2.98 2.98 0 01.671-1 2.98 2.98 0 011-.658 3.113 3.113 0 011.232-.244c.439 0 .846.077 1.22.232.374.146.695.357.963.634.268.268.48.593.634.975.155.383.232.81.232 1.281v.17a.696.696 0 01-.012.135.696.696 0 01-.012.134h-5.171c.04.293.117.561.231.805.122.244.277.456.464.634.195.171.414.305.658.403.244.09.508.134.793.134.415 0 .785-.093 1.11-.28.325-.196.573-.46.744-.793h1.049c-.114.3-.269.569-.464.805a3.18 3.18 0 01-.67.61 3.222 3.222 0 01-.83.378 3.2 3.2 0 01-.939.134zm2.049-3.684c-.089-.56-.317-1.008-.683-1.341-.358-.342-.813-.512-1.366-.512a2.082 2.082 0 00-1.402.512 2.059 2.059 0 00-.476.573 2.52 2.52 0 00-.256.768h4.183zm-6.611 3.538h-.976V4.562h-.049l-3.415 4.586h-.975V3.049h.975v4.586h.049l3.415-4.586h.976v6.099zm-11.712 0h-.975V3.049h.975v2.488h3.415V3.05h.976v6.099h-.976V6.415h-3.415v2.733zm-6.389.146a3.9 3.9 0 01-.659-.061 1.92 1.92 0 01-.634-.232 1.401 1.401 0 01-.488-.488c-.13-.22-.195-.504-.195-.854 0-.308.053-.565.159-.768a1.5 1.5 0 01.426-.524 2.2 2.2 0 01.622-.354c.236-.09.484-.167.744-.232l2.464-.634v-.17c0-.245-.049-.444-.146-.598a1 1 0 00-.354-.379 1.289 1.289 0 00-.463-.182 2.162 2.162 0 00-.501-.061c-.406 0-.776.097-1.109.292a1.195 1.195 0 00-.598.878h-1a2.29 2.29 0 01.28-.878c.147-.252.338-.463.574-.634.244-.17.52-.297.829-.378a3.76 3.76 0 011.024-.134c.244 0 .505.028.781.085.285.049.549.155.793.317.244.155.443.374.597.659.163.284.244.663.244 1.134v2.757c0 .146.029.248.086.305.057.056.158.085.305.085h.317v.902h-.683c-.26 0-.46-.056-.598-.17a.904.904 0 01-.28-.464l-.074-.268h-.048a2.786 2.786 0 01-1.049.78 3.359 3.359 0 01-1.366.269zm.122-.854c.284 0 .565-.037.841-.11.277-.081.525-.203.744-.366a1.887 1.887 0 00.732-1.549v-.39l-2.464.634c-.333.09-.581.204-.744.342-.154.13-.231.325-.231.585 0 .195.04.35.122.464a.797.797 0 00.292.256c.114.057.236.093.366.11.13.016.244.024.342.024zm-8.608-5.39h3.318c.317 0 .605.04.866.121.26.073.479.183.658.33a1.42 1.42 0 01.573 1.159c0 .308-.081.568-.244.78a1.786 1.786 0 01-.658.512v.049c.341.138.606.337.793.597.187.26.28.557.28.89a1.566 1.566 0 01-.524 1.172 1.988 1.988 0 01-.635.353c-.252.09-.54.135-.865.135h-3.562V3.049zm3.318 2.512c.333 0 .601-.07.805-.208a.683.683 0 00.317-.61.683.683 0 00-.317-.61c-.204-.138-.472-.207-.805-.207h-2.342v1.635h2.342zm.146 2.707c.358 0 .638-.085.841-.256a.819.819 0 00.305-.658.819.819 0 00-.305-.659c-.203-.17-.483-.256-.841-.256h-2.488v1.83h2.488zm-8.052 1.025c-.447 0-.865-.077-1.256-.232a3.248 3.248 0 01-1-.659 3.117 3.117 0 01-.671-1.012 3.341 3.341 0 01-.244-1.293c0-.471.082-.902.244-1.293a2.98 2.98 0 01.671-1 2.98 2.98 0 011-.658 3.235 3.235 0 011.256-.244c.448 0 .862.081 1.244.244.391.154.728.374 1.013.658.284.277.508.61.671 1 .162.39.243.822.243 1.293 0 .472-.081.903-.243 1.293-.163.39-.387.728-.671 1.012a3.204 3.204 0 01-1.013.66 3.284 3.284 0 01-1.244.23zm0-.878c.318 0 .61-.057.879-.171.268-.114.5-.272.695-.476.195-.203.345-.447.451-.732.114-.284.171-.597.171-.939 0-.341-.057-.654-.171-.939a2.101 2.101 0 00-.451-.732 2.077 2.077 0 00-.695-.475 2.229 2.229 0 00-.879-.171c-.317 0-.609.057-.878.17-.268.115-.5.273-.695.476a2.253 2.253 0 00-.463.732 2.672 2.672 0 00-.159.94c0 .34.053.654.159.938.114.285.268.529.463.732.195.204.427.362.695.476.269.114.561.17.878.17zm-7.186-5.513c.439 0 .842.081 1.207.244a2.854 2.854 0 011.586 1.659c.154.39.232.82.232 1.292 0 .472-.078.903-.232 1.293-.146.39-.354.728-.622 1.012a3 3 0 01-.964.66 3.068 3.068 0 01-1.207.23c-.512 0-.955-.097-1.329-.292a2.87 2.87 0 01-.915-.756h-.049v3.342h-.976V3.049h.976v.903h.049a2.87 2.87 0 01.915-.757c.374-.195.817-.292 1.329-.292zm-.122 5.513a2.138 2.138 0 001.561-.647c.195-.203.346-.447.451-.732.106-.284.159-.597.159-.939 0-.341-.053-.654-.159-.939a2.087 2.087 0 00-.451-.732 2.138 2.138 0 00-1.561-.646c-.317 0-.61.057-.878.17-.268.115-.5.273-.695.476a2.27 2.27 0 00-.464.732 2.694 2.694 0 00-.158.94c0 .34.053.654.158.938.114.285.269.529.464.732.195.204.427.362.695.476.268.114.561.17.878.17zm-5.051.732h-.976V4.562h-.049l-3.415 4.586h-.975V3.049h.975v4.586h.049l3.415-4.586h.976v6.099zm-12.58-6.098h5.854v.877h-2.44v5.22h-.975v-5.22h-2.439V3.05zm-6.079 0h.976v2.487h.951l2.415-2.488h1.244l-2.83 2.903 2.854 3.196h-1.244l-2.415-2.733h-.975v2.733h-.976V3.049zm-4.458 6.244c-.447 0-.862-.077-1.244-.232a3.248 3.248 0 01-1-.659 3.2 3.2 0 01-.658-1.012 3.323 3.323 0 01-.244-1.293c0-.471.081-.902.244-1.293a2.97 2.97 0 01.67-1 2.98 2.98 0 011-.658 3.117 3.117 0 011.232-.244c.439 0 .846.077 1.22.232.374.146.695.357.963.634.269.268.48.593.634.975.155.383.232.81.232 1.281v.17a.696.696 0 01-.012.135.696.696 0 01-.012.134h-5.171c.04.293.118.561.231.805.122.244.277.456.464.634.195.171.415.305.658.403.244.09.509.134.793.134.415 0 .785-.093 1.11-.28.325-.196.573-.46.744-.793h1.049c-.114.3-.268.569-.464.805a3.18 3.18 0 01-.67.61 3.206 3.206 0 01-.83.378 3.19 3.19 0 01-.939.134zm2.049-3.684c-.089-.56-.317-1.008-.683-1.341-.358-.342-.813-.512-1.366-.512a2.082 2.082 0 00-1.402.512 2.059 2.059 0 00-.476.573 2.52 2.52 0 00-.256.768h4.183zm-9.356 3.684a3.38 3.38 0 01-1.256-.232 3.24 3.24 0 01-1.001-.659 3.098 3.098 0 01-.67-1.012 3.323 3.323 0 01-.244-1.293c0-.471.081-.902.244-1.293a2.97 2.97 0 01.67-1 2.975 2.975 0 011.001-.658c.39-.163.809-.244 1.256-.244.447 0 .862.081 1.244.244.39.154.727.374 1.012.658.285.277.508.61.671 1 .162.39.244.822.244 1.293 0 .472-.082.903-.244 1.293a3.1 3.1 0 01-.671 1.012 3.21 3.21 0 01-1.012.66 3.288 3.288 0 01-1.244.23zm0-.878c.317 0 .61-.057.878-.171.268-.114.5-.272.695-.476.195-.203.346-.447.451-.732.114-.284.171-.597.171-.939 0-.341-.057-.654-.171-.939a2.087 2.087 0 00-.451-.732 2.077 2.077 0 00-.695-.475 2.224 2.224 0 00-.878-.171c-.317 0-.61.057-.878.17a2.08 2.08 0 00-.696.476 2.253 2.253 0 00-.463.732 2.672 2.672 0 00-.159.94c0 .34.053.654.159.938.114.285.268.529.463.732.196.204.427.362.696.476.268.114.561.17.878.17zm-7.186-5.513c.439 0 .842.081 1.208.244a2.854 2.854 0 011.585 1.659c.155.39.232.82.232 1.292 0 .472-.077.903-.232 1.293-.146.39-.354.728-.622 1.012a2.978 2.978 0 01-.963.66 3.077 3.077 0 01-1.208.23c-.512 0-.955-.097-1.329-.292a2.87 2.87 0 01-.915-.756h-.049v3.342h-.975V3.049h.975v.903h.049a2.87 2.87 0 01.915-.757c.374-.195.817-.292 1.329-.292zm-.122 5.513a2.138 2.138 0 001.561-.647c.195-.203.346-.447.452-.732a2.69 2.69 0 00.158-.939c0-.341-.053-.654-.158-.939a2.103 2.103 0 00-.452-.732 2.138 2.138 0 00-1.561-.646c-.317 0-.61.057-.878.17-.268.115-.5.273-.695.476a2.27 2.27 0 00-.464.732 2.694 2.694 0 00-.158.94c0 .34.053.654.158.938.114.285.269.529.464.732.195.204.427.362.695.476.268.114.561.17.878.17zM103.566.61h7.098v8.538h-1.049V1.56h-5v7.587h-1.049V.61z"/></g><defs><clipPath id="clip0_75_328"><path fill="#fff" d="M0 0h311v62H0z"/></clipPath></defs></svg>