<svg width="86" height="17" fill="none" xmlns="http://www.w3.org/2000/svg"><g clip-path="url(#clip0_119_28)" fill="#4C4C4C"><path d="M25.562 14.898l.192-.203c.5.568 1.04.854 1.771.854 1.368 0 2.214-1.18 2.214-3.25 0-1.91-.79-3.089-2.214-3.089-.615 0-1.213.286-1.58.71l-.191-.223c.346-.407 1.02-.792 1.771-.792 1.58 0 2.524 1.259 2.524 3.453 0 2.195-.982 3.494-2.503 3.494-.886 0-1.484-.365-1.984-.954zm1.153-2.883h3.274v.286h-3.274v-.286zm4.641-2.986h.442l1.193 3.25.425 1.199h.037l.404-1.2 1.214-3.25h.444v6.704h-.308v-5.026c0-.416.02-.883.03-1.301h-.03l-.346 1.086-1.3 3.454h-.26l-1.29-3.454-.374-1.086h-.02c.009.416.038.883.038 1.3v5.027h-.299V9.03zm5.634 0h.308v4.347c0 .63-.02 1.239-.038 1.89h.038l.694-1.321 2.657-4.916h.346v6.703h-.308v-4.407c0-.63.02-1.199.038-1.827h-.038l-.694 1.32-2.657 4.917h-.346V9.029zm4.748 6.743l.095-.325a.66.66 0 00.27.06c.346 0 .616-.244.924-1.95.27-1.513.5-2.904.77-4.53h2.753v6.703h-.308V9.312h-2.195c-.25 1.442-.462 2.854-.712 4.285-.328 1.89-.654 2.255-1.214 2.255a1.06 1.06 0 01-.386-.082m6.615-6.741h.308v2.986h1.444c1.367 0 2.233.53 2.233 1.768 0 1.24-.77 1.952-2.196 1.952h-1.79V9.03l.001-.002zm1.676 6.418c1.327 0 2.003-.509 2.003-1.646 0-1.056-.694-1.502-2.041-1.502h-1.33v3.148h1.368zm3.344-3.031c0-2.157 1.219-3.458 2.874-3.458.77 0 1.381.39 1.77.82l-.545.64c-.32-.347-.714-.566-1.225-.566-1.122 0-1.876.966-1.876 2.537s.754 2.576 1.89 2.576c.544 0 .97-.257 1.34-.693l.545.62c-.498.617-1.143.966-1.982.966-1.559 0-2.793-1.25-2.793-3.438m7.363-2.48h-2.035v-.86h5.038v.86h-2.035v5.792h-.968V9.94zm4.065-.86h1.99c1.388 0 2.37.502 2.37 2.004s-.998 2.109-2.37 2.109h-1.022v2.537h-.966V9.077l-.002.003zm1.896 3.294c1.016 0 1.504-.412 1.504-1.29 0-.878-.504-1.184-1.504-1.184h-.93v2.474h.93zm3.182.002c0-2.168 1.009-3.418 2.452-3.418 1.444 0 2.452 1.25 2.452 3.418s-1.008 3.478-2.452 3.478c-1.443 0-2.452-1.274-2.452-3.478zm3.907 0c0-1.597-.578-2.524-1.455-2.524-.877 0-1.454.927-1.454 2.524s.577 2.586 1.454 2.586 1.455-.951 1.455-2.586zm1.928-3.296h.903v3.166c0 .72-.087 1.517-.125 2.188h.023l.586-1.4 1.926-3.954h1.033v6.652h-.904v-3.19c0-.714.087-1.469.125-2.164h-.022l-.587 1.399-1.926 3.955H75.71V9.08zm7.246.86h-2.037v-.86h5.038v.86h-2.035v5.792h-.966V9.94zm-67.302 1.39h-2.235V9.197h2.236v2.133zm-2.01-.222h1.787v-1.69h-1.787v1.69zm5.185.222h-2.235V9.197h2.235v2.133zm-2.012-.222h1.787v-1.69h-1.787v1.69z"/><path d="M12.182.279l-.03.037a.058.058 0 00-.046 0L5.214 3.64V2.177a.056.056 0 00-.056-.055.056.056 0 00-.055.055v1.515l-.168.08V1.49a.055.055 0 00-.056-.055.055.055 0 00-.055.055v2.338L1.642 5.363a.054.054 0 00-.027.073c.01.02.03.03.052.03.009 0 .015 0 .024-.004l3.135-1.51v.218L1.399 5.823a.057.057 0 00-.027.075c.01.02.03.031.05.031.008 0 .017 0 .024-.004l3.378-1.629v11.098H.594a.055.055 0 00-.056.055c0 .031.024.055.055.055h4.233v.104H.056a.055.055 0 00-.056.056c0 .03.025.055.056.055h4.77v1.226c0 .03.027.055.056.055a.056.056 0 00.055-.055v-1.226h.168v1.226c0 .03.024.055.056.055a.055.055 0 00.055-.055v-1.226H20.33V6.914l3.184 2.48.138-.175-11.47-8.94zm-7.247 3.62l.168-.08v.219l-.168.081v-.221zm.17 11.707h-.168v-.104h.168v.104zm-.168-.214V4.242l.166-.08v11.232h-.166v-.002zm.28-11.629l6.84-3.3.174.134L5.214 3.98v-.219l.002.002zm6.697 11.843H5.216v-.104h6.698v.104zm8.208-8.825l-.013 8.715h-7.97V11.61h-.223v3.783H5.22V4.106L12.33.675l7.793 6.106zM84.96 2.548a.942.942 0 01-.347-.063.897.897 0 01-.277-.18.85.85 0 01-.185-.278.907.907 0 01-.067-.355.9.9 0 01.067-.354.823.823 0 01.462-.455.9.9 0 01.347-.067c.124 0 .239.022.344.067a.816.816 0 01.466.455.907.907 0 01.067.354c0 .13-.022.248-.067.355a.85.85 0 01-.186.277.887.887 0 01-.624.244zm0-.24a.62.62 0 00.243-.047.573.573 0 00.317-.331.682.682 0 00.047-.258.682.682 0 00-.172-.458.573.573 0 00-.192-.13.62.62 0 00-.243-.047.62.62 0 00-.242.047.574.574 0 00-.32.33.73.73 0 00-.045.258.616.616 0 00.172.458c.054.056.118.1.192.13a.62.62 0 00.243.048zM82.277.836h.917c.088 0 .168.011.24.034a.5.5 0 01.182.09.388.388 0 01.159.318.339.339 0 01-.068.214.493.493 0 01-.182.14v.013a.486.486 0 01.219.164.425.425 0 01-.067.565.549.549 0 01-.176.097.72.72 0 01-.24.037h-.984V.836zm.917.689a.392.392 0 00.223-.057.187.187 0 00.087-.167.185.185 0 00-.087-.167.392.392 0 00-.223-.057h-.647v.448h.647zm.04.742a.353.353 0 00.233-.07.224.224 0 00.085-.18.224.224 0 00-.085-.181.353.353 0 00-.232-.07h-.688v.501h.688zM80.295.836h1.62v.24h-.675v1.432h-.27V1.077h-.675v-.24zM79.29 2.548a.916.916 0 01-.344-.063.898.898 0 01-.276-.18.834.834 0 01-.18-.278.948.948 0 01-.063-.355c0-.13.021-.247.064-.354a.797.797 0 01.455-.455.876.876 0 01.344-.067.879.879 0 01.533.174.812.812 0 01.186.204.796.796 0 01.11.264h-.276a.6.6 0 00-.209-.294.554.554 0 00-.344-.107.629.629 0 00-.246.047.548.548 0 00-.307.33.786.786 0 00-.04.258c0 .094.013.18.04.258a.548.548 0 00.307.331.629.629 0 00.246.047c.135 0 .25-.035.344-.104a.62.62 0 00.21-.298h.276a.834.834 0 01-.112.268.836.836 0 01-.428.33.94.94 0 01-.29.044zM76.66.836h.27v.595h.633c.077 0 .151.011.223.034a.539.539 0 01.33.264.51.51 0 01.055.244.494.494 0 01-.378.505.824.824 0 01-.223.03h-.91V.836zm.91 1.431c.106 0 .187-.026.243-.08a.283.283 0 00.088-.214.283.283 0 00-.088-.214c-.058-.058-.142-.087-.25-.087h-.633v.595h.64zm-1.436.241h-.27V1.077h-.822l-.061 1.03a.478.478 0 01-.108.3c-.063.072-.164.108-.303.108h-.17v-.268h.136c.067 0 .113-.013.138-.04.025-.027.04-.073.044-.14l.074-1.23h1.342v1.671zm-2.77.04a.916.916 0 01-.344-.063.897.897 0 01-.277-.18.88.88 0 01-.25-.633.9.9 0 01.068-.354.824.824 0 01.462-.455.868.868 0 01.34-.067.88.88 0 01.338.063.793.793 0 01.442.441.92.92 0 01.064.352V1.7a.183.183 0 01-.003.037.19.19 0 01-.004.036h-1.43a.625.625 0 00.192.395.63.63 0 00.183.11c.067.025.14.037.219.037a.609.609 0 00.307-.077.534.534 0 00.205-.217h.29a.77.77 0 01-.128.22.88.88 0 01-.185.168.89.89 0 01-.49.14zm.566-1.01a.608.608 0 00-.189-.368.527.527 0 00-.377-.14.599.599 0 00-.388.14.566.566 0 00-.202.368h1.156zM70.68.836h1.618v.24h-.674v1.432h-.27V1.077h-.674v-.24zm-.365 1.672h-.27V1.251h-.013l-.944 1.257h-.27V.836h.27v1.258h.013l.945-1.258h.27v1.672zm-2.766.04a.942.942 0 01-.348-.063.897.897 0 01-.276-.18.85.85 0 01-.186-.278.907.907 0 01-.067-.355.9.9 0 01.067-.354.823.823 0 01.462-.455.9.9 0 01.348-.067c.123 0 .238.022.344.067a.815.815 0 01.465.455.906.906 0 01.068.354c0 .13-.023.248-.068.355a.848.848 0 01-.185.277.886.886 0 01-.624.244zm0-.24a.62.62 0 00.243-.047.574.574 0 00.317-.331.682.682 0 00.047-.258.682.682 0 00-.172-.458.574.574 0 00-.192-.13.62.62 0 00-.243-.047.62.62 0 00-.243.047.573.573 0 00-.32.33.73.73 0 00-.044.258.616.616 0 00.172.458c.054.056.118.1.192.13a.62.62 0 00.243.048zM65.562.796c.121 0 .232.022.333.067a.782.782 0 01.439.455.949.949 0 01.064.354c0 .13-.021.248-.064.355a.817.817 0 01-.172.277.825.825 0 01-.6.244.79.79 0 01-.368-.08.792.792 0 01-.253-.207h-.014v.916h-.27V.837h.27v.247h.014a.792.792 0 01.253-.208.79.79 0 01.368-.08zm-.034 1.512a.596.596 0 00.431-.178.573.573 0 00.125-.2.73.73 0 00.044-.258.73.73 0 00-.044-.257.573.573 0 00-.556-.378.62.62 0 00-.243.047.573.573 0 00-.32.33.73.73 0 00-.044.258.616.616 0 00.172.458c.054.056.118.1.192.13a.62.62 0 00.243.048zM62.676.836h1.62v.24h-.675v1.432h-.27V1.077h-.675v-.24zm-1.005 1.712a.916.916 0 01-.344-.063.897.897 0 01-.277-.18.833.833 0 01-.178-.278.948.948 0 01-.064-.355c0-.13.021-.247.064-.354a.797.797 0 01.455-.455.876.876 0 01.344-.067.878.878 0 01.533.174.811.811 0 01.185.204.792.792 0 01.112.264h-.277a.601.601 0 00-.209-.294.554.554 0 00-.344-.107.629.629 0 00-.246.047.546.546 0 00-.186.13.6.6 0 00-.121.2.783.783 0 00-.04.258c0 .094.013.18.04.258a.6.6 0 00.121.2.53.53 0 00.186.13.629.629 0 00.246.048c.135 0 .25-.035.344-.104a.621.621 0 00.21-.298h.276a.83.83 0 01-.112.268.836.836 0 01-.428.33.94.94 0 01-.29.044zm-2.199-.04h-.27V1.251h-.013l-.944 1.257h-.27V.836h.27v1.258h.013l.945-1.258h.27v1.672zm-3.674.04a.916.916 0 01-.344-.063.898.898 0 01-.276-.18.876.876 0 01-.25-.633.9.9 0 01.068-.354.823.823 0 01.462-.455.867.867 0 01.34-.067c.122 0 .234.021.338.063a.793.793 0 01.442.441.923.923 0 01.063.352V1.7a.183.183 0 01-.003.037.182.182 0 01-.003.036h-1.43a.625.625 0 00.192.395.632.632 0 00.182.11c.068.025.14.037.22.037a.608.608 0 00.306-.077.533.533 0 00.206-.217h.29a.772.772 0 01-.128.22.88.88 0 01-.186.168.89.89 0 01-.489.14zm.567-1.01a.608.608 0 00-.189-.368.528.528 0 00-.378-.14.599.599 0 00-.388.14.565.565 0 00-.202.368h1.157zm-1.828.97h-.27V1.251h-.013l-.945 1.257h-.27V.836h.27v1.258h.014l.944-1.258h.27v1.672zm-3.238 0h-.27V.836h.27v.682h.944V.836h.27v1.672h-.27V1.76h-.944v.75zm-1.767.04c-.056 0-.117-.005-.182-.016a.533.533 0 01-.176-.064.386.386 0 01-.135-.134.452.452 0 01-.054-.234c0-.085.015-.155.044-.21a.412.412 0 01.118-.144.614.614 0 01.172-.097c.065-.025.134-.046.206-.064l.681-.174v-.047a.3.3 0 00-.04-.163.273.273 0 00-.098-.104.358.358 0 00-.128-.05.6.6 0 00-.445.063.328.328 0 00-.166.241h-.276a.62.62 0 01.077-.24.56.56 0 01.159-.175.715.715 0 01.23-.103 1.048 1.048 0 01.498-.014.566.566 0 01.22.087.48.48 0 01.165.18.62.62 0 01.067.312v.756c0 .04.008.068.024.083.016.016.044.024.084.024h.088v.247h-.189a.255.255 0 01-.165-.047.248.248 0 01-.078-.127l-.02-.073h-.014a.767.767 0 01-.29.214.935.935 0 01-.377.073zm.033-.234c.08 0 .157-.01.233-.03a.653.653 0 00.206-.1.52.52 0 00.202-.425v-.107l-.681.174a.535.535 0 00-.206.094c-.043.035-.064.089-.064.16 0 .054.011.096.034.127a.22.22 0 00.08.07.313.313 0 00.102.03.781.781 0 00.094.007zM47.185.836h.917c.088 0 .168.011.24.034.072.02.133.05.182.09a.388.388 0 01.158.318.339.339 0 01-.067.214.493.493 0 01-.182.14v.013a.486.486 0 01.22.164.425.425 0 01-.067.565.55.55 0 01-.177.097.72.72 0 01-.24.037h-.984V.836zm.917.689a.392.392 0 00.223-.057.187.187 0 00.088-.167c0-.074-.03-.13-.088-.167a.392.392 0 00-.223-.057h-.647v.448h.647zm.04.742a.353.353 0 00.234-.07.224.224 0 00.084-.18.224.224 0 00-.084-.181.353.353 0 00-.233-.07h-.688v.501h.688zm-2.226.281a.943.943 0 01-.347-.063.898.898 0 01-.277-.18.85.85 0 01-.185-.278.906.906 0 01-.067-.355.9.9 0 01.067-.354.824.824 0 01.462-.455.901.901 0 01.347-.067c.124 0 .239.022.344.067a.816.816 0 01.466.455.906.906 0 01.067.354c0 .13-.022.248-.067.355a.849.849 0 01-.186.277.887.887 0 01-.624.244zm0-.24a.62.62 0 00.243-.047.575.575 0 00.317-.331.684.684 0 00.047-.258.684.684 0 00-.172-.458.575.575 0 00-.192-.13.62.62 0 00-.243-.047.62.62 0 00-.242.047.573.573 0 00-.32.33.73.73 0 00-.045.258.616.616 0 00.172.458c.054.056.118.1.193.13a.62.62 0 00.242.048zM43.93.796c.12 0 .232.022.333.067a.78.78 0 01.438.455.947.947 0 01.065.354c0 .13-.022.248-.064.355a.816.816 0 01-.172.277.824.824 0 01-.6.244.79.79 0 01-.368-.08.792.792 0 01-.253-.207h-.014v.916h-.27V.837h.27v.247h.014a.792.792 0 01.253-.208.79.79 0 01.367-.08zm-.035 1.512a.596.596 0 00.432-.178.573.573 0 00.125-.2.73.73 0 00.044-.258.73.73 0 00-.044-.257.573.573 0 00-.556-.378.62.62 0 00-.243.047.573.573 0 00-.32.33.73.73 0 00-.044.258.616.616 0 00.172.458c.053.056.117.1.192.13a.62.62 0 00.242.048zm-1.397.2h-.27V1.251h-.013l-.944 1.257H41V.836h.27v1.258h.013L42.23.836h.27v1.672zM39.02.836h1.619v.24h-.675v1.432h-.27V1.077h-.674v-.24zm-1.681 0h.27v.682h.263l.667-.682h.344l-.782.796.79.876h-.345l-.667-.749h-.27v.75h-.27V.835zm-1.233 1.712a.916.916 0 01-.344-.063.898.898 0 01-.276-.18.877.877 0 01-.25-.633.9.9 0 01.068-.354.823.823 0 01.462-.455.867.867 0 01.34-.067c.122 0 .234.021.338.063a.793.793 0 01.442.441.923.923 0 01.064.352V1.7a.183.183 0 01-.004.037.182.182 0 01-.003.036h-1.43a.625.625 0 00.192.395.632.632 0 00.182.11c.068.025.14.037.22.037a.608.608 0 00.306-.077.533.533 0 00.206-.217h.29a.772.772 0 01-.128.22.88.88 0 01-.185.168.89.89 0 01-.49.14zm.567-1.01a.608.608 0 00-.189-.368.528.528 0 00-.378-.14.599.599 0 00-.387.14.565.565 0 00-.203.368h1.157zm-2.588 1.01a.942.942 0 01-.347-.063.897.897 0 01-.277-.18.85.85 0 01-.185-.278.907.907 0 01-.068-.355.9.9 0 01.068-.354.823.823 0 01.462-.455.9.9 0 01.347-.067c.124 0 .239.022.344.067a.816.816 0 01.466.455.907.907 0 01.067.354c0 .13-.022.248-.067.355a.85.85 0 01-.186.277.887.887 0 01-.624.244zm0-.24a.62.62 0 00.243-.047.573.573 0 00.317-.331.682.682 0 00.047-.258.682.682 0 00-.172-.458.573.573 0 00-.192-.13.62.62 0 00-.243-.047.62.62 0 00-.242.047.574.574 0 00-.32.33.73.73 0 00-.045.258.616.616 0 00.172.458c.054.056.118.1.193.13a.62.62 0 00.242.048zM32.099.796c.121 0 .232.022.334.067a.782.782 0 01.439.455.949.949 0 01.063.354c0 .13-.021.248-.064.355a.817.817 0 01-.172.277.825.825 0 01-.6.244.79.79 0 01-.368-.08.792.792 0 01-.253-.207h-.013v.916h-.27V.837h.27v.247h.013a.792.792 0 01.253-.208.79.79 0 01.368-.08zm-.034 1.512a.596.596 0 00.432-.178.573.573 0 00.124-.2.73.73 0 00.044-.258.73.73 0 00-.044-.257.573.573 0 00-.556-.378.62.62 0 00-.243.047.573.573 0 00-.32.33.73.73 0 00-.044.258.616.616 0 00.172.458c.054.056.118.1.192.13a.62.62 0 00.243.048zM28.639.167h1.963v2.341h-.29V.428h-1.383v2.08h-.29V.168z"/></g><defs><clipPath id="clip0_119_28"><path fill="#fff" d="M0 0h86v17H0z"/></clipPath></defs></svg>