<svg width="128" height="133" fill="none" xmlns="http://www.w3.org/2000/svg"><path clip-rule="evenodd" d="M38.922 95.293L14.59 110.312l4.177-25.783C8.645 75.889 3 63.92 3 50.694 3 24.354 25.389 3 60.95 3c35.561 0 57.95 21.354 57.95 47.694 0 26.341-22.389 47.695-57.95 47.695-8.054 0-15.432-1.096-22.028-3.096z" stroke="#3D3939" stroke-width="6" stroke-linecap="round" stroke-linejoin="round"/><path d="M116.189 66.125C121.862 71.955 125 79.678 125 88.15c0 9.118-3.635 17.369-10.153 23.325l2.69 17.775-15.668-10.354c-4.248 1.379-8.999 2.134-14.185 2.134-18.678 0-31.714-9.795-35.884-23.26" stroke="#3D3939" stroke-width="6" stroke-linecap="round" stroke-linejoin="round"/></svg>