<svg width="130" height="135" fill="none" xmlns="http://www.w3.org/2000/svg"><path d="M27.5 69.8h44c2.164 0 4 1.828 4 4.19 0 2.364-1.836 4.192-4 4.192h-44c-2.164 0-4-1.828-4-4.191 0-2.363 1.836-4.192 4-4.192zm0-22.767h44c2.164 0 4 1.828 4 4.191 0 2.363-1.836 4.192-4 4.192h-44c-2.164 0-4-1.829-4-4.192 0-2.363 1.836-4.191 4-4.191zm0-22.767H44c2.164 0 4 1.829 4 4.192 0 2.363-1.836 4.19-4 4.19H27.5c-2.164 0-4-1.827-4-4.19 0-2.363 1.836-4.192 4-4.192z" fill="#3D3939" stroke="#fff" stroke-width="3"/><path d="M11 1.5h77c5.195 0 9.5 4.347 9.5 9.71v44.844c0 2.281-1.83 4.105-4 4.105s-4-1.824-4-4.105v-42.04c0-2.371-1.855-4.303-4.25-4.303h-71.5c-2.395 0-4.25 1.932-4.25 4.303v106.502c0 2.37 1.855 4.301 4.25 4.301h71.5c2.395 0 4.25-1.931 4.25-4.301v-2.803c0-2.282 1.83-4.106 4-4.106s4 1.824 4 4.106v5.604c0 5.365-4.305 9.711-9.5 9.711H11c-5.195 0-9.5-4.346-9.5-9.711V11.211C1.5 5.847 5.805 1.5 11 1.5z" fill="#3D3939" stroke="#fff" stroke-width="3"/><path d="M118.612 62.483c2.887-1.721 5.948-.995 7.214.972l.117.194 2.039 3.653-.002.002c1.166 2.094.335 5.26-2.437 7.076l-.273.171-52.778 31.412-.009.005-.008.006a4.2 4.2 0 01-1.062.451l-14.5 3.716-.002.001c-1.494.383-2.647-.18-3.129-1.047l-.005-.01-.086-.169c-.388-.878-.204-2.163.792-3.203l.008-.008 10.43-11.042.027-.029.027-.031c.192-.227.44-.415.788-.62l.448-.264.024-.063 52.376-31.172.001-.001z" fill="#3D3939" stroke="#fff" stroke-width="3"/></svg>