<svg width="120" height="124" fill="none" xmlns="http://www.w3.org/2000/svg"><path d="M29.765 51.746h7.627v24.148c0 4.549 3.577 8.252 7.974 8.252h51.233c4.396 0 7.975-3.703 7.975-8.252V51.746h10.31c1.425 0 2.682-.932 3.283-2.436.651-1.627.361-3.469-.713-4.58L76.21 1.739c-2.182-2.254-5.665-2.328-7.78-.147L27.203 44.798c-1.074 1.11-1.367 2.928-.73 4.524.6 1.495 1.86 2.424 3.292 2.424zm48.209 27.676H66.189V59.885c0-.563.443-1.021.987-1.021h9.811c.544 0 .987.458.987 1.02v19.538zm22.034-3.528c0 1.944-1.529 3.528-3.409 3.528H82.54V59.885c0-3.168-2.49-5.746-5.552-5.746h-9.811c-3.061 0-5.552 2.578-5.552 5.746v19.537H45.366c-1.88 0-3.409-1.584-3.409-3.528V50.098L72.315 18.66l28.246 29.231c-.33.41-.553.917-.553 1.492v26.51zm-28.34-70.97c.348-.362.96-.208 1.307.148l40.245 41.95h-7.043L75.543 15.32a4.444 4.444 0 00-6.437 0L38.474 47.022h-6.975L71.67 4.925zM3.897 69.896a2.228 2.228 0 00-3.228 0 2.42 2.42 0 000 3.34l8.315 8.603a5.197 5.197 0 007.533 0l8.315-8.602a2.42 2.42 0 000-3.34 2.228 2.228 0 00-3.228 0l-6.572 6.797V7.554l6.57 6.8a2.24 2.24 0 001.616.693c.584 0 1.168-.23 1.614-.692a2.42 2.42 0 000-3.34l-8.315-8.606c-.52-.538-1.152-.896-1.805-1.19-1.154-.521-3.163-.246-3.924 0-.673.217-1.286.653-1.805 1.19L.67 11.015a2.42 2.42 0 000 3.34 2.228 2.228 0 003.227 0l6.57-6.8v69.139l-6.57-6.798zm31.663 52.663c.445.461 1.03.692 1.613.692.586 0 1.17-.231 1.614-.692a2.42 2.42 0 00.001-3.34l-6.57-6.801h80.768l-6.57 6.801a2.419 2.419 0 000 3.34c.446.461 1.03.692 1.614.692.584 0 1.168-.231 1.614-.692l8.313-8.603c.531-.548.745-1.057 1.19-1.896.376-.709.337-3.278-.001-4.009-.374-.81-.659-1.345-1.188-1.892l-8.314-8.603a2.228 2.228 0 00-3.228 0 2.419 2.419 0 000 3.34l6.57 6.798H32.218l6.57-6.798a2.42 2.42 0 000-3.34 2.23 2.23 0 00-3.229 0l-8.314 8.603a5.579 5.579 0 00-1.56 3.897c0 1.473.555 2.861 1.56 3.897l8.314 8.606z" fill="#3D3939"/></svg>