<svg width="122" height="127" fill="none" xmlns="http://www.w3.org/2000/svg"><path d="M60.958 1.5c11.412 0 20.313 2.871 27.193 7.42l.66.446c6.945 4.792 11.529 11.154 14.544 17.396 3.008 6.223 4.491 12.395 5.229 16.977.188 1.167.329 2.237.435 3.188l.107.968.929.296c.813.259 1.685.602 2.567 1.058 1.861.963 3.853 2.477 5.371 4.834 1.537 2.385 2.424 5.38 2.424 8.999 0 3.62-.887 6.614-2.424 9-1.518 2.356-3.51 3.87-5.371 4.832v.001c-.881.456-1.753.799-2.567 1.058l-.929.296-.107.967c-.106.95-.247 2.021-.435 3.188-.738 4.582-2.221 10.755-5.229 16.978-3.015 6.241-7.6 12.604-14.544 17.396-6.969 4.807-16.073 7.866-27.853 7.866-11.78 0-20.884-3.059-27.852-7.866-6.945-4.792-11.53-11.155-14.546-17.396-3.006-6.223-4.49-12.396-5.228-16.978a65.395 65.395 0 01-.434-3.187l-.107-.968-.929-.296a16.408 16.408 0 01-2.567-1.058h-.001c-1.861-.964-3.852-2.478-5.37-4.834-1.537-2.385-2.424-5.38-2.424-8.999 0-3.62.887-6.614 2.424-8.999 1.518-2.357 3.509-3.87 5.37-4.834.882-.456 1.754-.8 2.567-1.058l.93-.296.107-.968c.106-.95.246-2.02.434-3.187v0c.738-4.583 2.222-10.755 5.229-16.978 3.015-6.242 7.6-12.604 14.545-17.396h0C40.072 4.557 49.177 1.5 60.957 1.5zM21.225 80.512c.617 4.064 1.906 9.599 4.547 15.066 2.527 5.229 6.255 10.335 11.778 14.146 5.5 3.795 13.021 6.47 23.408 6.47s17.908-2.676 23.408-6.47c5.524-3.811 9.252-8.917 11.778-14.146 2.642-5.467 3.93-11.002 4.548-15.066l.263-1.726H20.962l.263 1.726zM68 10.397l-1.344-.14a54.754 54.754 0 00-5.698-.287c-2.002 0-3.9.099-5.697.287l-1.344.14v18.277c0 2.387-1.858 4.234-4.042 4.234-2.184 0-4.042-1.847-4.042-4.234V12.216l-2.073.858a33.41 33.41 0 00-6.21 3.366c-5.522 3.81-9.251 8.918-11.777 14.146-2.642 5.467-3.93 11.003-4.548 15.066l-.263 1.726h6.746c2.184 0 4.042 1.847 4.042 4.234 0 2.388-1.858 4.235-4.042 4.235H16.595l-.03.002c-1.87.075-4.4.786-5.81 2.774l-.132.196c-.54.84-1.04 2.146-1.04 4.263s.5 3.422 1.04 4.262v0c1.378 2.138 4.012 2.894 5.941 2.971l.03.001h88.758c1.929-.078 4.564-.834 5.941-2.972.541-.84 1.04-2.145 1.04-4.262 0-2.117-.499-3.423-1.04-4.263-1.377-2.138-4.012-2.893-5.941-2.97l-.03-.002H94.208c-2.184 0-4.041-1.847-4.041-4.235 0-2.387 1.857-4.234 4.041-4.234h6.747l-.263-1.726c-.618-4.063-1.906-9.599-4.547-15.066-2.527-5.228-6.255-10.335-11.779-14.146a33.413 33.413 0 00-6.209-3.366l-2.074-.86v16.46c0 2.387-1.857 4.234-4.041 4.234S68 31.061 68 28.674V10.398z" fill="#3D3939" stroke="#fff" stroke-width="3"/></svg>